<mxfile host="65bd71144e">
    <diagram id="uweooDtXgeJJblEq07gg" name="第 1 页">
        <mxGraphModel dx="581" dy="503" grid="1" gridSize="10" guides="1" tooltips="1" connect="1" arrows="1" fold="1" page="1" pageScale="1" pageWidth="827" pageHeight="1169" background="none" math="0" shadow="0">
            <root>
                <mxCell id="0"/>
                <mxCell id="1" parent="0"/>
                <mxCell id="49" value="" style="group;verticalAlign=top;" vertex="1" connectable="0" parent="1">
                    <mxGeometry x="160" y="490" width="127" height="140" as="geometry"/>
                </mxCell>
                <mxCell id="52" value="obj" style="shape=table;childLayout=tableLayout;rowLines=0;columnLines=0;startSize=30;collapsible=0;recursiveResize=0;expand=0;pointerEvents=0;fontStyle=1;align=center;" vertex="1" parent="49">
                    <mxGeometry y="18.666666666666668" width="127" height="121.33333333333333" as="geometry"/>
                </mxCell>
                <mxCell id="59" value="__proto__&#10;" style="swimlane;horizontal=1;points=[[0,0.5],[1,0.5]];portConstraint=eastwest;startSize=40;collapsible=0;recursiveResize=0;expand=0;pointerEvents=0;verticalAlign=middle;align=center;" vertex="1" parent="52">
                    <mxGeometry y="30" width="127" height="30" as="geometry"/>
                </mxCell>
                <mxCell id="60" value="" style="swimlane;connectable=0;startSize=0;collapsible=0;recursiveResize=0;expand=0;pointerEvents=0;" vertex="1" parent="59">
                    <mxGeometry y="40" width="127" height="-10" as="geometry">
                        <mxRectangle width="127" height="-10" as="alternateBounds"/>
                    </mxGeometry>
                </mxCell>
                <object label="name&#10;" name="" id="53">
                    <mxCell style="swimlane;horizontal=0;points=[[0,0.5],[1,0.5]];portConstraint=eastwest;startSize=40;collapsible=0;recursiveResize=0;expand=0;pointerEvents=0;" vertex="1" parent="52">
                        <mxGeometry y="60" width="127" height="31" as="geometry"/>
                    </mxCell>
                </object>
                <mxCell id="54" style="swimlane;connectable=0;startSize=0;collapsible=0;recursiveResize=0;expand=0;pointerEvents=0;" vertex="1" parent="53">
                    <mxGeometry x="40" width="87" height="31" as="geometry">
                        <mxRectangle width="87" height="31" as="alternateBounds"/>
                    </mxGeometry>
                </mxCell>
                <mxCell id="65" value="thunder&lt;br&gt;" style="text;html=1;align=center;verticalAlign=middle;resizable=0;points=[];autosize=1;strokeColor=none;fillColor=none;" vertex="1" parent="54">
                    <mxGeometry x="10" y="7" width="60" height="20" as="geometry"/>
                </mxCell>
                <mxCell id="55" value="age" style="swimlane;horizontal=0;points=[[0,0.5],[1,0.5]];portConstraint=eastwest;startSize=40;collapsible=0;recursiveResize=0;expand=0;pointerEvents=0;" vertex="1" parent="52">
                    <mxGeometry y="91" width="127" height="30" as="geometry"/>
                </mxCell>
                <mxCell id="56" style="swimlane;connectable=0;startSize=0;collapsible=0;recursiveResize=0;expand=0;pointerEvents=0;" vertex="1" parent="55">
                    <mxGeometry x="40" width="87" height="30" as="geometry">
                        <mxRectangle width="87" height="30" as="alternateBounds"/>
                    </mxGeometry>
                </mxCell>
                <mxCell id="48" value="18" style="text;html=1;align=center;verticalAlign=middle;resizable=0;points=[];autosize=1;strokeColor=none;fillColor=none;" vertex="1" parent="56">
                    <mxGeometry x="25" y="6.5" width="30" height="20" as="geometry"/>
                </mxCell>
                <mxCell id="64" value="" style="edgeStyle=elbowEdgeStyle;elbow=horizontal;endArrow=classic;html=1;entryX=1;entryY=0.75;entryDx=0;entryDy=0;" edge="1" parent="1" target="68">
                    <mxGeometry width="50" height="50" relative="1" as="geometry">
                        <mxPoint x="287" y="550" as="sourcePoint"/>
                        <mxPoint x="300" y="450" as="targetPoint"/>
                        <Array as="points">
                            <mxPoint x="387" y="480"/>
                        </Array>
                    </mxGeometry>
                </mxCell>
                <mxCell id="67" value="" style="group;verticalAlign=top;" vertex="1" connectable="0" parent="1">
                    <mxGeometry x="160" y="380" width="127" height="150" as="geometry"/>
                </mxCell>
                <mxCell id="68" value="第一个{}" style="shape=table;childLayout=tableLayout;rowLines=0;columnLines=0;startSize=30;collapsible=0;recursiveResize=0;expand=0;pointerEvents=0;fontStyle=1;align=center;" vertex="1" parent="67">
                    <mxGeometry y="20" width="127" height="64.64285714285712" as="geometry"/>
                </mxCell>
                <mxCell id="69" value="__proto__&#10;" style="swimlane;horizontal=1;points=[[0,0.5],[1,0.5]];portConstraint=eastwest;startSize=40;collapsible=0;recursiveResize=0;expand=0;pointerEvents=0;verticalAlign=middle;align=center;" vertex="1" parent="68">
                    <mxGeometry y="30" width="127" height="35" as="geometry"/>
                </mxCell>
                <mxCell id="70" value="" style="swimlane;connectable=0;startSize=0;collapsible=0;recursiveResize=0;expand=0;pointerEvents=0;" vertex="1" parent="69">
                    <mxGeometry y="40" width="127" height="-5" as="geometry">
                        <mxRectangle width="127" height="-5" as="alternateBounds"/>
                    </mxGeometry>
                </mxCell>
                <mxCell id="77" value="" style="edgeStyle=elbowEdgeStyle;elbow=horizontal;endArrow=classic;html=1;entryX=1;entryY=0.75;entryDx=0;entryDy=0;" edge="1" parent="1" target="78">
                    <mxGeometry width="50" height="50" relative="1" as="geometry">
                        <mxPoint x="287" y="440" as="sourcePoint"/>
                        <mxPoint x="300" y="340" as="targetPoint"/>
                        <Array as="points">
                            <mxPoint x="387" y="370"/>
                        </Array>
                    </mxGeometry>
                </mxCell>
                <mxCell id="78" value="第二个{}" style="shape=table;childLayout=tableLayout;rowLines=0;columnLines=0;startSize=30;collapsible=0;recursiveResize=0;expand=0;pointerEvents=0;fontStyle=1;align=center;" vertex="1" parent="1">
                    <mxGeometry x="160" y="290" width="127" height="64.64285714285712" as="geometry"/>
                </mxCell>
                <mxCell id="79" value="__proto__&#10;" style="swimlane;horizontal=1;points=[[0,0.5],[1,0.5]];portConstraint=eastwest;startSize=40;collapsible=0;recursiveResize=0;expand=0;pointerEvents=0;verticalAlign=middle;align=center;" vertex="1" parent="78">
                    <mxGeometry y="30" width="127" height="35" as="geometry"/>
                </mxCell>
                <mxCell id="80" value="" style="swimlane;connectable=0;startSize=0;collapsible=0;recursiveResize=0;expand=0;pointerEvents=0;" vertex="1" parent="79">
                    <mxGeometry y="40" width="127" height="-5" as="geometry">
                        <mxRectangle width="127" height="-5" as="alternateBounds"/>
                    </mxGeometry>
                </mxCell>
                <mxCell id="81" value="" style="edgeStyle=elbowEdgeStyle;elbow=horizontal;endArrow=classic;html=1;entryX=1.016;entryY=0.323;entryDx=0;entryDy=0;entryPerimeter=0;" edge="1" parent="1" target="83">
                    <mxGeometry width="50" height="50" relative="1" as="geometry">
                        <mxPoint x="287" y="330" as="sourcePoint"/>
                        <mxPoint x="300" y="230" as="targetPoint"/>
                        <Array as="points">
                            <mxPoint x="387" y="260"/>
                        </Array>
                    </mxGeometry>
                </mxCell>
                <mxCell id="82" value="第三个{}" style="shape=table;childLayout=tableLayout;rowLines=0;columnLines=0;startSize=30;collapsible=0;recursiveResize=0;expand=0;pointerEvents=0;fontStyle=1;align=center;" vertex="1" parent="1">
                    <mxGeometry x="160" y="150" width="127" height="104.63999999999999" as="geometry"/>
                </mxCell>
                <mxCell id="83" value="__proto__&#10;" style="swimlane;horizontal=1;points=[[0,0.5],[1,0.5]];portConstraint=eastwest;startSize=50;collapsible=0;recursiveResize=0;expand=0;pointerEvents=0;verticalAlign=middle;align=center;spacing=0;fontSize=12;" vertex="1" parent="82">
                    <mxGeometry y="30" width="127" height="31" as="geometry"/>
                </mxCell>
                <mxCell id="84" value="北京市" style="swimlane;connectable=0;startSize=10;collapsible=0;recursiveResize=0;expand=0;pointerEvents=0;align=center;" vertex="1" parent="83">
                    <mxGeometry y="50" width="127" height="-19" as="geometry">
                        <mxRectangle width="127" height="-19" as="alternateBounds"/>
                    </mxGeometry>
                </mxCell>
                <mxCell id="85" value="address&#10;" style="swimlane;horizontal=0;points=[[0,0.5],[1,0.5]];portConstraint=eastwest;startSize=40;collapsible=0;recursiveResize=0;expand=0;pointerEvents=0;verticalAlign=middle;align=center;" vertex="1" parent="82">
                    <mxGeometry y="61" width="127" height="44" as="geometry"/>
                </mxCell>
                <mxCell id="86" style="swimlane;connectable=0;startSize=0;collapsible=0;recursiveResize=0;expand=0;pointerEvents=0;align=center;" vertex="1" parent="85">
                    <mxGeometry x="40" width="87" height="44" as="geometry">
                        <mxRectangle width="87" height="44" as="alternateBounds"/>
                    </mxGeometry>
                </mxCell>
            </root>
        </mxGraphModel>
    </diagram>
</mxfile>